Coordinates
version=1
nRows=22
nColumns=24
inDegrees=yes

Units are S.I. units (second, meters, Newtons, ...)
Angles are in degrees.

endheader
time	pelvis_tilt	pelvis_list	pelvis_rotation	pelvis_tx	pelvis_ty	pelvis_tz	hip_flexion_r	hip_adduction_r	hip_rotation_r	knee_angle_r	ankle_angle_r	subtalar_angle_r	mtp_angle_r	hip_flexion_l	hip_adduction_l	hip_rotation_l	knee_angle_l	ankle_angle_l	subtalar_angle_l	mtp_angle_l	lumbar_extension	lumbar_bending	lumbar_rotation
      0.88366667	      0.32649468	     -2.40014349	      4.37743265	     -0.32149864	      0.98609358	      0.34706788	     13.11432300	      7.39910895	     -3.48458858	    -24.11389404	     11.19386241	    -11.59005032	     -4.21491213	     16.05696877	     -1.96623437	      2.56322868	    -71.08598201	     -1.54038131	    -11.41327284	     -0.68614595	     -0.09990418	      5.37605212	      1.43251018
      0.88783333	      0.43976303	     -2.32924642	      4.26418407	     -0.31647974	      0.98711592	      0.34736775	     12.42393652	      7.35987102	     -3.50571254	    -23.66231556	     11.25526240	    -11.26575396	     -4.24964798	     16.58466882	     -1.86620590	      2.51767105	    -70.92171837	     -0.97669566	    -11.59643253	     -0.73044558	     -0.27871038	      5.31551279	      1.60174496
      0.89200000	      0.50181332	     -2.26642218	      4.14311829	     -0.31148272	      0.98801307	      0.34767532	     11.79963036	      7.32104462	     -3.53599947	    -23.22601526	     11.31732323	    -10.91613178	     -4.27769410	     17.16311964	     -1.77545232	      2.46702249	    -70.72209527	     -0.43411917	    -11.75876776	     -0.78498305	     -0.39307746	      5.25931833	      1.78523024
      0.89616667	      0.59426704	     -2.18728413	      4.01596028	     -0.30647952	      0.98894877	      0.34796917	     11.13841578	      7.26145323	     -3.57242416	    -22.78386812	     11.37682294	    -10.55389292	     -4.29742116	     17.68506949	     -1.66991550	      2.40847770	    -70.45703175	      0.07362477	    -11.92347346	     -0.84937740	     -0.54444794	      5.18695682	      1.96483939
      0.90033333	      0.67850662	     -2.11813469	      3.88624070	     -0.30149412	      0.98982785	      0.34826736	     10.49034684	      7.21039028	     -3.61276859	    -22.34367057	     11.43148467	    -10.18052774	     -4.30777312	     18.20766162	     -1.57697841	      2.35251277	    -70.15242259	      0.55834981	    -12.07000752	     -0.92238154	     -0.68833435	      5.12886713	      2.14707447
      0.90450000	      0.74391395	     -2.05284623	      3.74824041	     -0.29652773	      0.99063298	      0.34856407	      9.86946670	      7.15905807	     -3.64939381	    -21.91168439	     11.48419609	     -9.79954131	     -4.30786392	     18.74020270	     -1.48922534	      2.29298244	    -69.80719846	      1.01723402	    -12.19852687	     -0.99993057	     -0.81270652	      5.07150255	      2.33063015
      0.90866667	      0.82555826	     -1.98379410	      3.60467111	     -0.29157221	      0.99142773	      0.34886219	      9.23355368	      7.10221922	     -3.69174846	    -21.48304383	     11.53499091	     -9.41386896	     -4.29764284	     19.23904508	     -1.40240818	      2.22772914	    -69.41320083	      1.44636057	    -12.31221156	     -1.08217751	     -0.95825449	      5.01092103	      2.51799033
      0.91283333	      0.88592526	     -1.89000331	      3.45086304	     -0.28662872	      0.99217213	      0.34913190	      8.63923966	      7.00389308	     -3.76418027	    -21.09512785	     11.62270419	     -8.90640523	     -4.24749949	     19.73919109	     -1.28049990	      2.15874684	    -68.96040307	      1.82714727	    -12.44224826	     -1.32187628	     -1.08102508	      4.92189187	      2.73167990
      0.91700000	      0.96307042	     -1.84123826	      3.30743004	     -0.28168442	      0.99288774	      0.34943839	      8.00195861	      6.97180746	     -3.77667742	    -20.64175457	     11.63364143	     -8.60187106	     -4.22108314	     20.21934913	     -1.22198187	      2.10421149	    -68.48371603	      2.21242508	    -12.47894422	     -1.39973655	     -1.22128381	      4.88572823	      2.89230646
      0.92116667	      1.01469007	     -1.77518817	      3.12688307	     -0.27676456	      0.99352207	      0.34977708	      7.41550117	      6.91652631	     -3.77138904	    -20.23780151	     11.66666896	     -8.26926475	     -4.19467216	     20.70553635	     -1.15460334	      2.00857446	    -67.95936269	      2.59113718	    -12.55198175	     -1.45492328	     -1.33357654	      4.82497671	      3.05007729
      0.92533333	      1.07974601	     -1.70008969	      2.96178230	     -0.27183331	      0.99416708	      0.35006801	      6.80834844	      6.84308118	     -3.79548122	    -19.81964553	     11.70234182	     -7.87029585	     -4.15915569	     21.15594474	     -1.06762870	      1.94025841	    -67.37654999	      2.91424580	    -12.57264335	     -1.51776394	     -1.46210808	      4.75971675	      3.25565601
      0.92950000	      1.15284044	     -1.63813490	      2.79410267	     -0.26692253	      0.99475856	      0.35037305	      6.19981089	      6.78321336	     -3.82039160	    -19.41088974	     11.74530603	     -7.46603541	     -4.11707742	     21.58941127	     -1.00227686	      1.86900586	    -66.76362975	      3.21679353	    -12.56761750	     -1.58229991	     -1.60272492	      4.70876714	      3.45676143
      0.93366667	      1.21752303	     -1.56222030	      2.64940896	     -0.26200912	      0.99531032	      0.35062658	      5.60510587	      6.69541371	     -3.90853705	    -19.01101852	     11.80700327	     -6.99551049	     -4.04253685	     22.01510727	     -0.90662603	      1.83091717	    -66.10138559	      3.46716832	    -12.53148691	     -1.68903654	     -1.73586893	      4.62790906	      3.71226789
      0.93783333	      1.26264013	     -1.50657136	      2.47410559	     -0.25711539	      0.99578327	      0.35093934	      5.03535619	      6.63864234	     -3.92489668	    -18.61203472	     11.84483622	     -6.60262851	     -3.96719876	     22.44848731	     -0.85137533	      1.76242986	    -65.40801081	      3.74066230	    -12.48825617	     -1.78565633	     -1.84305162	      4.57572248	      3.90149033
      0.94200000	      1.28692293	     -1.45650377	      2.29420265	     -0.25223526	      0.99617537	      0.35125434	      4.49581465	      6.58568472	     -3.93554639	    -18.22505503	     11.88687376	     -6.22780967	     -3.88676136	     22.89120540	     -0.80440322	      1.69482533	    -64.68021192	      4.00121922	    -12.42225654	     -1.87946697	     -1.92803776	      4.52878275	      4.09934645
      0.94616667	      1.32176033	     -1.40941415	      2.09661687	     -0.24736016	      0.99655176	      0.35158840	      3.94369338	      6.54040935	     -3.89359362	    -17.83486849	     11.91390795	     -5.90163346	     -3.82614750	     23.29972602	     -0.76887687	      1.61490898	    -63.90541809	      4.25332966	    -12.35317667	     -1.94327131	     -2.02244167	      4.49932627	      4.25538678
      0.95033333	      1.36138696	     -1.35619546	      1.91786546	     -0.24247311	      0.99689792	      0.35190853	      3.38374410	      6.48391930	     -3.89233778	    -17.43862922	     11.95080502	     -5.54986836	     -3.76041254	     23.68578177	     -0.72259957	      1.55401308	    -63.08705168	      4.48097862	    -12.25522605	     -2.00777142	     -2.12636170	      4.44733838	      4.44964564
      0.95450000	      1.39510302	     -1.32262507	      1.73898116	     -0.23760412	      0.99717926	      0.35222573	      2.83461550	      6.44691732	     -3.88440465	    -17.04553118	     11.99297344	     -5.19968667	     -3.69090585	     24.06752424	     -0.69950515	      1.50047860	    -62.24061503	      4.69778268	    -12.15195068	     -2.07121251	     -2.22560959	      4.41726497	      4.64336969
      0.95866667	      1.41698718	     -1.28037282	      1.55763947	     -0.23273433	      0.99741084	      0.35254322	      2.30260861	      6.39798071	     -3.87715669	    -16.66197221	     12.03717556	     -4.86068434	     -3.61968068	     24.44107888	     -0.66873696	      1.44441255	    -61.34927541	      4.89601346	    -12.04484593	     -2.13264168	     -2.30841839	      4.37395235	      4.83240494
      0.96283333	      1.43797131	     -1.25383615	      1.38409831	     -0.22785689	      0.99758984	      0.35285281	      1.76926523	      6.36501899	     -3.87342988	    -16.27228728	     12.08516222	     -4.52392538	     -3.54398498	     24.80203482	     -0.65643090	      1.39670946	    -60.42874815	      5.08528219	    -11.93566954	     -2.19504333	     -2.39015878	      4.34671612	      5.02108531
      0.96700000	      1.46630527	     -1.22912892	      1.20863933	     -0.22298832	      0.99774408	      0.35317007	      1.22969152	      6.33473022	     -3.85539753	    -15.88458816	     12.13503170	     -4.21253086	     -3.47086684	     25.13527949	     -0.64770656	      1.35259572	    -59.46652427	      5.25715546	    -11.82945128	     -2.25235602	     -2.47964538	      4.32465362	      5.19359127
      0.97116667	      1.49618248	     -1.21222013	      1.06542272	     -0.21810506	      0.99783320	      0.35343168	      0.69140895	      6.30316159	     -3.92087951	    -15.50263915	     12.19996315	     -3.84729714	     -3.34188481	     25.45626752	     -0.63439076	      1.33943991	    -58.47915010	      5.42542352	    -11.72358454	     -2.35178704	     -2.56725157	      4.30284209	      5.42431906
